<?xml version="1.0" encoding="utf-8"?>
<!-- Generator: Adobe Illustrator 25.0.1, SVG Export Plug-In . SVG Version: 6.00 Build 0)  -->
<svg version="1.0" id="katman_1" xmlns="http://www.w3.org/2000/svg" xmlns:xlink="http://www.w3.org/1999/xlink" x="0px" y="0px"
	 viewBox="0 0 800 600" style="enable-background:new 0 0 800 600;" xml:space="preserve">
<style type="text/css">
	.st0{fill:#198D00;}
	.st1{fill:#868786;}
</style>
<symbol  id="logo" viewBox="-174.1 -16 348.2 32">
	<path class="st0" d="M-147.5,15.3l-5.4-21.2l-5.4,21.2h-7l-8.8-30.9h7.4l5.4,22.3l5.9-22.3h5.1l5.8,22.3l5.4-22.3h7.4l-8.8,30.9
		H-147.5z"/>
	<path class="st0" d="M-134.4,4.1c0-6.5,4.8-11.7,11.6-11.7c6.7,0,11.2,5,11.2,12.3V6h-16.6c0.4,2.8,2.6,5.2,6.4,5.2
		c1.9,0,4.5-0.8,6-2.2l2.6,3.8c-2.2,2-5.7,3.1-9.2,3.1C-129.2,15.9-134.4,11.3-134.4,4.1z M-122.8-2.9c-3.7,0-5.2,2.7-5.5,5h11
		C-117.4-0.1-118.9-2.9-122.8-2.9z"/>
	<path class="st0" d="M-108.7,15.3v-30.9h5.8v11.4c1.8-2.3,4.3-3.4,6.9-3.4c5.7,0,9.9,4.4,9.9,11.8c0,7.5-4.3,11.7-9.9,11.7
		c-2.7,0-5.1-1.2-6.9-3.4v2.9L-108.7,15.3L-108.7,15.3z M-97.8,10.6c3.4,0,5.7-2.6,5.7-6.5s-2.3-6.5-5.7-6.5c-1.9,0-4.1,1.1-5,2.6
		v7.9C-101.9,9.6-99.7,10.6-97.8,10.6z"/>
	<path class="st0" d="M-85,12.4l2.5-4.1c1.6,1.5,5,3.1,7.7,3.1c2.5,0,3.7-1,3.7-2.4c0-3.7-13.3-0.7-13.3-9.5c0-3.7,3.3-7,9.2-7
		c3.8,0,6.8,1.3,9,3.1l-2.4,4C-69.9-1.8-72.5-3-75.2-3c-2.1,0-3.5,1-3.5,2.2c0,3.3,13.2,0.6,13.2,9.6c0,4.1-3.5,7.2-9.7,7.2
		C-78.8,15.9-82.6,14.6-85,12.4z"/>
	<path class="st0" d="M-60.2,9.8V-1.9h-3.7V-7h3.7v-6.1h5.9V-7h4.5v5.1h-4.5V8.2c0,1.4,0.7,2.5,2,2.5c0.9,0,1.7-0.3,2-0.6l1.2,4.4
		c-0.9,0.8-2.5,1.4-4.9,1.4C-58,15.9-60.2,13.7-60.2,9.8z"/>
	<path class="st0" d="M-32.8,15.3V13c-1.5,1.8-4.2,2.9-7.1,2.9c-3.6,0-7.8-2.4-7.8-7.4c0-5.2,4.2-7.2,7.8-7.2c3,0,5.6,1,7.1,2.7V1
		c0-2.3-1.9-3.7-4.9-3.7c-2.4,0-4.6,0.9-6.5,2.6L-46.4-4c2.7-2.4,6.2-3.5,9.8-3.5c5.1,0,9.8,2,9.8,8.5v14.4L-32.8,15.3L-32.8,15.3z
		 M-32.8,9.9V7.1c-1-1.3-2.8-1.9-4.7-1.9c-2.3,0-4.2,1.2-4.2,3.4c0,2.1,1.9,3.3,4.2,3.3C-35.6,11.9-33.8,11.2-32.8,9.9z"/>
	<path class="st0" d="M-8.3,15.3v-2.8c-1.5,1.7-4.2,3.4-7.9,3.4c-4.9,0-7.2-2.7-7.2-7V-7h5.9V6.6c0,3.1,1.6,4.1,4.1,4.1
		c2.3,0,4.1-1.2,5.1-2.5V-7h5.9v22.4L-8.3,15.3L-8.3,15.3z"/>
	<path class="st0" d="M2,15.3V-7h5.9v3.1c1.6-2,4.4-3.6,7.1-3.6v5.7c-0.4-0.1-1-0.1-1.6-0.1c-1.9,0-4.5,1.1-5.5,2.5v14.8L2,15.3
		L2,15.3z"/>
	<path class="st0" d="M30.7,15.3V13c-1.5,1.8-4.2,2.9-7.1,2.9c-3.6,0-7.8-2.4-7.8-7.4c0-5.2,4.2-7.2,7.8-7.2c3,0,5.6,1,7.1,2.7V1
		c0-2.3-1.9-3.7-4.9-3.7c-2.4,0-4.6,0.9-6.5,2.6l-2.2-4c2.7-2.4,6.2-3.5,9.8-3.5c5.1,0,9.8,2,9.8,8.5v14.4H30.7z M30.7,9.9V7.1
		c-1-1.3-2.8-1.9-4.7-1.9c-2.3,0-4.2,1.2-4.2,3.4c0,2.1,1.9,3.3,4.2,3.3C27.9,11.9,29.7,11.2,30.7,9.9z"/>
	<path class="st0" d="M56.1,15.3V1.8c0-3.1-1.6-4.2-4.1-4.2c-2.3,0-4.1,1.3-5.1,2.6v15H41V-7h5.9v2.9c1.4-1.7,4.2-3.5,7.8-3.5
		c4.9,0,7.3,2.8,7.3,7.1v15.8H56.1z"/>
	<path class="st0" d="M68.5,9.8V-1.9h-3.7V-7h3.7v-6.1h5.9V-7h4.5v5.1h-4.5V8.2c0,1.4,0.7,2.5,2,2.5c0.9,0,1.7-0.3,2-0.6l1.2,4.4
		c-0.9,0.8-2.5,1.4-4.9,1.4C70.8,15.9,68.5,13.7,68.5,9.8z"/>
	<path class="st1" d="M81.8,11l1.7-2c2,2.3,5.2,4.5,9.6,4.5c6.3,0,8.1-3.5,8.1-6.2c0-9.1-18.5-4.4-18.5-15.1c0-5,4.5-8.2,10.1-8.2
		c4.6,0,8.1,1.6,10.5,4.4l-1.8,1.9c-2.2-2.7-5.4-3.9-8.8-3.9c-4.1,0-7.2,2.4-7.2,5.7C85.5,0,104-4.3,104,7.2c0,4-2.6,8.7-11,8.7
		C88,15.9,84.1,13.8,81.8,11z"/>
	<path class="st1" d="M109.4,11V-4.9h-3.7V-7h3.7v-6.1h2.5V-7h4.5v2.1h-4.5v15.6c0,1.8,0.7,3.1,2.3,3.1c1.1,0,2-0.5,2.5-1.1l0.9,1.9
		c-0.9,0.8-1.9,1.4-3.8,1.4C110.8,15.9,109.4,14.1,109.4,11z"/>
	<path class="st1" d="M118.1,4.1c0-6.5,4.2-11.7,10.7-11.7c6.6,0,10.8,5.2,10.8,11.7s-4.2,11.8-10.8,11.8
		C122.3,15.9,118.1,10.6,118.1,4.1z M137,4.1c0-5-2.9-9.5-8.2-9.5c-5.2,0-8.1,4.6-8.1,9.5c0,5,3,9.6,8.1,9.6
		C134.1,13.7,137,9.1,137,4.1z"/>
	<path class="st1" d="M142.6,15.3V-7h2.4v3.8c1.9-2.5,4.4-4.3,7.5-4.3v2.6C152.1-5,151.8-5,151.3-5C149-5,146-3,145-1v16.3
		C145,15.3,142.6,15.3,142.6,15.3z"/>
	<path class="st1" d="M152.7,4.1c0-6.5,4.6-11.7,10.8-11.7c6.8,0,10.6,5.4,10.6,11.8v0.7h-18.7c0.2,4.9,3.5,8.9,8.7,8.9
		c2.8,0,5.4-1.1,7.3-3.1l1.3,1.6c-2.2,2.3-5,3.6-8.7,3.6C157.4,15.9,152.7,11,152.7,4.1z M163.4-5.5c-5.3,0-7.9,4.6-8.1,8.5h16.2
		C171.5-0.8,169-5.5,163.4-5.5z"/>
</symbol>
<use xlink:href="#logo"  width="348.2" height="32" x="-174.1" y="-16" transform="matrix(1 0 0 1 8656.8184 8502.3262)" style="overflow:visible;"/>
<use xlink:href="#logo"  width="348.2" height="32" x="-174.1" y="-16" transform="matrix(2.0103 0 0 2.0103 397 306.1674)" style="overflow:visible;"/>
</svg>
